<svg xmlns="http://www.w3.org/2000/svg" width="24" height="24" viewBox="0 0 256 256" fill="currentColor"><path d="M72,128a134.63,134.63,0,0,1-14.16,60.47,8,8,0,1,1-14.32-7.12A118.8,118.8,0,0,0,56,128,72.08,72.08,0,0,1,128,56a71.56,71.56,0,0,1,44.6,15.49,8,8,0,0,1-10,12.49A55.56,55.56,0,0,0,128,72,56.06,56.06,0,0,0,72,128Zm56-104A104.11,104.11,0,0,0,24,128a87.53,87.53,0,0,1-5.33,30.15,8,8,0,1,0,14.86,5.94A103.62,103.62,0,0,0,40,128a88,88,0,0,1,176,0,281.6,281.6,0,0,1-7.11,56.37,8,8,0,0,0,5.67,9.79,8.11,8.11,0,0,0,2.06.27,8,8,0,0,0,7.73-5.93A297.88,297.88,0,0,0,232,128,104.12,104.12,0,0,0,128,24Zm0,32a72.08,72.08,0,0,0-72,72,8,8,0,0,0,16,0,56.06,56.06,0,0,1,112,0,245.22,245.22,0,0,1-6.21,49.19,8,8,0,0,0,5.65,9.81,8.13,8.13,0,0,0,2.08.27,8,8,0,0,0,7.73-5.93A261.42,261.42,0,0,0,200,128,72.08,72.08,0,0,0,128,56Zm0,40a32,32,0,0,0-32,32,167.43,167.43,0,0,1-8.51,53.06,8,8,0,0,0,14.86,5.94A183.33,183.33,0,0,0,112,128a16,16,0,0,1,32,0,214.67,214.67,0,0,1-20.51,92.34,8,8,0,1,0,14.28,7.22A230.69,230.69,0,0,0,160,128,32,32,0,0,0,128,96Zm0-64A96.11,96.11,0,0,0,32,128a55.8,55.8,0,0,1-4.28,21.57,8,8,0,0,0,14.86,5.94A71.87,71.87,0,0,0,48,128a80,80,0,0,1,160,0,317.35,317.35,0,0,1-7.78,62.57,8,8,0,1,0,15.56,3.88A332.91,332.91,0,0,0,224,128,96.11,96.11,0,0,0,128,32Z"/></svg>
