<svg xmlns="http://www.w3.org/2000/svg" width="283.465" height="68.868" viewBox="0 0 283.465 68.868"><path fill="#0066B3" d="M231.871 13.996c-2.879 0-4.067 1.026-4.666 3.694l-6.907 42.706h15.515l7.513-46.399H231.871L231.871 13.996z"/><path fill="#0066B3" d="M54.727 12.699h-13.42c-2.062 0-3.226 .664-4.617 1.94L21.357 29.57l3.7-16.872H12.9c-2.892 0-4.088 1.038-4.67 3.719H8.229L0 60.395h15.261l4.188-20.701l14.21 20.701H52.66L33.747 33.464L54.727 12.699L54.727 12.699z"/><path fill="#0066B3" d="M262.392 49.528l6.119-35.532h-11.467c-2.835 0-4.046 .991-4.641 3.538l-6.934 42.861h36.589l1.406-10.867H262.392L262.392 49.528z"/><radialGradient id="a" cx="82.1123" cy="26.5918" r="41.5923" gradientUnits="userSpaceOnUse"><stop offset="0" stop-color="#00AFDC"/><stop offset=".2" stop-color="#00AFDD"/><stop offset="1" stop-color="#0066B3"/></radialGradient><path fill="url(#a)" d="M180.114 60.399l15.471-31.489l.077-1.046l6.071 32.545h15.872l-9.744-46.413h-14.654c-2.307 0-3.267 .656-4.283 2.29L169.827 54.1L156.2 41.78c6.168-1.717 13.023-6.455 14.944-14.402c3.425-14.098-8.495-14.679-12.445-14.679h-21.871c-2.824 0-3.332 .608-3.927 3.181l-4.207 19.767c-10.725-6.974-35.059-21.139-52.186-21.375c-4.315-.056-7.459 .6-10.511 2.471c-.458 .287-.572 .265-.638 .246l.237-.499c1.842-2.257 5.614-5.874 11.937-7.836c0 0 10.122-3.54 23.688 4.702c7.883 4.78 13.193 8.821 18.35 13.08c-3.905-16.216-19.055-27.787-36.349-26.31C67.527 1.471 55.193 13.058 52.269 27.71c8.36-7.488 24.402-10.145 48.971-1.751c5.512 1.886 10.591 3.921 15.241 6.026c4.243 1.887 8.54 4.138 13.033 6.727c9.254 5.332 19.592 12.743 27.954 21.688H180.114L180.114 60.399M144.349 36.44c.478-2.319 3.039-14.721 3.388-16.375h5.676c0 0 5.664-.333 3.644 7.313C157.056 27.378 154.81 36.44 144.349 36.44L144.349 36.44z"/><radialGradient id="b" cx="155.3926" cy="1072.3896" r="7.6169" gradientTransform="matrix(5.4769 0 0 5.4769 -768.9843 -5846.9492)" gradientUnits="userSpaceOnUse"><stop offset="0" stop-color="#00AFDC"/><stop offset=".2" stop-color="#00AFDD"/><stop offset="1" stop-color="#0066B3"/></radialGradient><path fill="url(#b)" d="M141.967 48.316c-1.227 5.345-2.53 12.079-2.53 12.079h-16.008l3.642-17.139c-3.575-1.166-6.068-1.875-7.219-2.161c-2.929 14.612-15.032 26.301-30.695 27.645c-10.165 .866-19.666-2.697-26.579-9.127l-.03-.034c0 0-6.66-6.057-6.142-14.799c.513-8.992 8.433-12.635 8.433-12.635c9.194-4.952 29.565-5.473 58.365 6.864C123.202 39.008 132.882 42.805 141.967 48.316L141.967 48.316z"/></svg>