<svg xmlns="http://www.w3.org/2000/svg" width="306" height="133" viewBox="0 0 306 133"><path fill="#4c2f48" d="m229.5 108.643-4 .353-63-.002-2-.268-2-.86-2-1.721-1.346-1.645-18.037-30 .383-.476 1.041-.524 4.959-1.645 5-2.024 8-4.117 3-1.976 2.682-2.238 2.318-2.248 2.346-2.752 2.031-4 .627-4-.567-3-1.36-2-1.233-1-1.844-1.151-3-1.109-6-1.021-5-.221-73 .11-9 1.213-4 1.022-5 1.924-2 1.071-4 2.835-2.293 2.327-2.188 3-.519 1.294-.382-1.294 1.084-5 1.05-3 1.958-4 2.895-4 4.395-4.23 3-2.072 4-2.086 5-1.86 5-1.191 6-.863 6-.194h67l6 .256 7 .852 5 1.044 4 1.19 4 1.663 4 2.238 2.563 2.253 1.835 2 1.722 3 1.12 4 .136 3-.184 2-.944 4-.809 2-2.128 4-4.311 5.225-6 4.94-5 3.047-4 1.99-7.137 2.798-.456 1 .49 1 8.924 15 1.179 1.489 1 .046h45l4-.362 2-.93 1.256-1.243 3.075-8 13.383-38 .614-1 .672-.426 20 .008.456.418-.143 1-1.598 4-15.55 44-1.904 4-2.891 4-3.37 3.095-4 2.378-2 .871zm-14-63.647h-11l-1-.148-.348-.348.951-3 1.976-4 2.157-3 2.264-2.304 4-2.931 2-1.067 5-2.018 4-1.053 6-.94 4-.179 66-.004 1 .152.344.344-6.978 12-1.366 1.274-2 .863-3 .323-63 .137-5 1.087-2 .975-2 1.858-1.02 1.483zm-95 64h-19l-1-.065-.435-.431 14.773-41 3.396-10 1.6-4 2.332-7 .881-2 .453-.418 20-.008.713.426-.423 2-.537 1-12.448 35-1.618 4-7.393 21-.532 1zm-71-.421-11 .421h-35l-1-.078-.418-.418 3.188-9 .977-2L8.5 95.256l2-.927 2-.289 27-.011 5-.184 6-1.135 4-1.764 1.814-1.446 1.636-2 .69-2-.024-2-.646-2-.995-2-4.667-8-1.295-3-.912-3-.095-3 .241-2 1.8-4 2.304-3 2.149-2.048 3-2.261 4-1.985 3-1.022 5-1.083.83.399-2.077 3-.963 3-.071 4 .917 4 1.067 3 2.813 6 3.754 7 2.061 5 .665 5-.794 5-1.819 4-2.171 3-2.212 2.27-4 3.032-4 2.13-5 1.909-4 .986z" shape-rendering="geometricPrecision"/></svg>