<svg xmlns="http://www.w3.org/2000/svg" viewBox="0 0 240 120" fill="none" stroke="#7f92b4" stroke-width="3" stroke-linecap="round" stroke-linejoin="round">
  <g transform="translate(18 18)">
    <rect x="0" y="0" width="84" height="84" rx="22"/>
    <g transform="translate(22 22) scale(1.65)">
      <path d="M16 12C16 14.2091 14.2091 16 12 16C9.79086 16 8 14.2091 8 12C8 9.79086 9.79086 8 12 8C14.2091 8 16 9.79086 16 12Z" stroke-width="2"/>
      <path d="M17 19.4845C15.5699 20.4417 13.8501 21 12 21C7.02944 21 3 16.9706 3 12C3 7.02944 7.02944 3 12 3C16.9706 3 21 7.02944 21 12C21 16 16 16 16 12" stroke-width="2"/>
    </g>
  </g>
  <g transform="translate(138 18)">
    <rect x="0" y="0" width="84" height="84" rx="22"/>
    <path d="M18 42c8-10 16-15 24-15s16 5 24 15c-8 10-16 15-24 15s-16-5-24-15Z"/>
    <circle cx="42" cy="42" r="7"/>
  </g>
</svg>
