<svg xmlns="http://www.w3.org/2000/svg" width="1151.9987" height="1152" viewBox="0 0 1151.9987 1152"><g transform="matrix(1.3333333 0 0 -1.3333333 0 1152)"><path fill="#006fcf" d="M0 0H863.998V864H0z"/><path transform="translate(312.9867 136.7145)" fill="#fff" d="m0 0l341.634-.725 53.654 59.858 54.038-59.632h101.685v87.332l-63.687 68.682 63.687 68.059V309.09L0 309.585z"/><path transform="translate(349.7917 170.655)" fill="#006fcf" fill-rule="evenodd" d="m0 0v241.575h204.832v-55.65H66.318V148.15H201.529V93.423H66.318V56.319H204.832V.001z"/><path transform="translate(780.0408 412.227)" fill="#006fcf" d="M0 0L-69.456-76.568-138.713 0h-87.729l113.343-120.647-113.341-120.925h85.343l69.764 77.335 70.487-77.335h84.803v3.43L-26.971-120.647 83.957-1.903V0z"/><path transform="translate(738.7857 721.0845)" fill="#fff" d="M0 0L-28.373-79.366-56.65 0H-220.625V-105.93L-267.278 0H-400.1l-136.414-309.586h661.726v309.586z"/><path transform="translate(373.0462 548.583)" fill="#006fcf" fill-rule="evenodd" d="M0 0L32.145 76.837 64.268 0zm-9.212 138.867l-107.187-241.37h73.518l20.22 48.332H86.914l20.207-48.332h75.345L75.723 138.867z"/><path transform="translate(554.5071 446.121)" fill="#006fcf" d="M0 0L64.997-.001V165.796L126.661-.001h58.418L245.49 165.233V-.564l64 .563V241.368H210.032L156.513 92.624 103.342 241.012 0 241.369z"/></g></svg>