<svg xmlns="http://www.w3.org/2000/svg" viewBox="0 0 116.5 72"><rect x="42.5" y="7.7" width="31.5" height="56.6" fill="#ff5f00"/><path fill="#eb001b" d="M44.5 36c0-11 5.1-21.5 13.7-28.3C42.6-4.6 20-1.9 7.7 13.8-4.6 29.4-1.9 52 13.8 64.3c13.1 10.3 31.4 10.3 44.5 0C49.6 57.5 44.5 47 44.5 36z"/><path fill="#f79e1b" d="M116.5 36c0 19.9-16.1 36-36 36-8.1 0-15.9-2.7-22.2-7.7 15.6-12.3 18.3-34.9 6-50.6-1.8-2.2-3.8-4.3-6-6 15.6-12.3 38.3-9.6 50.5 6.1C113.8 20.1 116.5 27.9 116.5 36z"/><path fill="#f79e1b" d="M113.1 58.3v-1.2h.5v-.2h-1.2v.2h.5v1.2H113.1zM115.4 58.3v-1.4H115l-.4 1-.4-1h-.4v1.4h.3v-1.1l.4 .9h.3l.4-.9v1.1H115.4z"/></svg>